<svg xmlns="http://www.w3.org/2000/svg" xmlns:xlink="http://www.w3.org/1999/xlink" version="1.1" x="0px" y="0px" viewBox="0 0 100 125" style="enable-background:new 0 0 100 100;" xml:space="preserve"><style type="text/css">
	.st0{fill:none;stroke:#000000;stroke-width:2;stroke-linecap:round;stroke-linejoin:round;stroke-miterlimit:10;}
</style><path d="M13.037,32.236c1.788,3.984,6.496,5.778,10.567,3.966l24.001-12.918l1.442,3.35L36.731,55.241L35.462,54.7  c-1.635-0.696-3.534,0.061-4.234,1.688L19.53,83.56c-0.34,0.789-0.351,1.663-0.032,2.461c0.32,0.8,0.934,1.427,1.728,1.765  l4.58,1.955c0.413,0.176,0.842,0.259,1.265,0.259c1.252,0,2.446-0.73,2.97-1.947L41.738,60.88c0.34-0.789,0.351-1.662,0.032-2.459  c-0.32-0.801-0.934-1.428-1.728-1.767l-1.472-0.628l11.566-26.864l11.566,26.864l-1.472,0.628c-0.794,0.339-1.408,0.966-1.728,1.767  c-0.319,0.797-0.308,1.67,0.032,2.459l11.698,27.172c0.524,1.217,1.718,1.947,2.97,1.947c0.423,0,0.852-0.083,1.265-0.259  l4.58-1.955c0.793-0.338,1.407-0.965,1.727-1.765c0.319-0.798,0.308-1.672-0.032-2.461L69.043,56.389  c-0.701-1.628-2.599-2.385-4.234-1.688l-1.269,0.541L51.224,26.634l1.442-3.35l24.069,12.951c4,1.78,8.711-0.015,10.499-3.999  l2.206-4.913c0.896-1.996,0.921-4.296,0.068-6.311c-0.857-2.023-2.536-3.613-4.607-4.364l-16.35-5.923  c-6.043-2.188-12.838,0.678-15.471,6.54l-2.945,6.84l-2.951-6.854c-2.626-5.85-9.419-8.715-15.465-6.526l-16.349,5.923  c-2.071,0.751-3.75,2.341-4.607,4.364c-0.853,2.015-0.829,4.314,0.068,6.311L13.037,32.236z M39.913,59.163  c0.12,0.3,0.116,0.629-0.012,0.926L28.203,87.261c-0.266,0.618-0.99,0.906-1.612,0.64l-4.58-1.955h0  c-0.301-0.128-0.534-0.365-0.655-0.668c-0.121-0.301-0.116-0.63,0.012-0.927L33.065,57.18c0.199-0.462,0.652-0.739,1.129-0.739  c0.162,0,0.326,0.032,0.483,0.1l4.58,1.954C39.559,58.623,39.792,58.86,39.913,59.163z M65.595,56.54  c0.158-0.067,0.322-0.1,0.483-0.1c0.477,0,0.93,0.277,1.129,0.739l11.698,27.171c0.128,0.297,0.132,0.626,0.012,0.927  c-0.121,0.303-0.353,0.54-0.654,0.668h0L73.681,87.9c-0.622,0.267-1.346-0.021-1.612-0.64L60.371,60.089  c-0.128-0.297-0.132-0.626-0.012-0.926c0.121-0.303,0.354-0.54,0.656-0.669L65.595,56.54z M54.911,18.07  c2.2-4.899,7.894-7.297,12.959-5.464l16.349,5.923c1.573,0.569,2.797,1.729,3.447,3.264c0.646,1.526,0.628,3.199-0.05,4.712  l-2.206,4.913c-1.339,2.98-4.867,4.323-7.794,3.022l-24.156-13L54.911,18.07z M12.605,21.793c0.65-1.535,1.874-2.694,3.447-3.264  l16.349-5.923c1.152-0.418,2.336-0.616,3.504-0.616c3.97,0,7.754,2.292,9.449,6.066l1.457,3.384L22.723,34.407  c-2.998,1.335-6.524-0.008-7.862-2.989l-2.206-4.913C11.977,24.992,11.958,23.319,12.605,21.793z"/><path d="M18.726,24.656c0.131,0,0.264-0.025,0.392-0.08L35.28,17.68c0.508-0.217,0.744-0.805,0.527-1.312s-0.804-0.744-1.312-0.527  l-16.162,6.896c-0.508,0.217-0.744,0.805-0.527,1.312C17.968,24.429,18.337,24.656,18.726,24.656z"/><path d="M19.974,29.085c0.162,0.38,0.532,0.607,0.92,0.607c0.131,0,0.264-0.025,0.392-0.08l16.161-6.896  c0.508-0.217,0.744-0.805,0.527-1.312c-0.216-0.508-0.805-0.743-1.312-0.527l-16.161,6.896  C19.994,27.989,19.757,28.577,19.974,29.085z"/><path d="M64.992,17.68l16.162,6.896c0.128,0.055,0.261,0.08,0.392,0.08c0.389,0,0.758-0.228,0.92-0.607  c0.217-0.508-0.02-1.096-0.527-1.312L65.777,15.84c-0.507-0.217-1.096,0.02-1.312,0.527C64.248,16.875,64.484,17.463,64.992,17.68z"/><path d="M79.377,29.692c0.389,0,0.758-0.228,0.92-0.607c0.217-0.508-0.02-1.096-0.527-1.312l-16.162-6.896  c-0.509-0.216-1.096,0.02-1.312,0.527c-0.217,0.508,0.02,1.096,0.527,1.312l16.162,6.896C79.113,29.667,79.247,29.692,79.377,29.692  z"/><text x="0" y="115" fill="#000000" font-size="5px" font-weight="bold" font-family="'Helvetica Neue', Helvetica, Arial-Unicode, Arial, Sans-serif">Created by Made</text><text x="0" y="120" fill="#000000" font-size="5px" font-weight="bold" font-family="'Helvetica Neue', Helvetica, Arial-Unicode, Arial, Sans-serif">from the Noun Project</text></svg>