<svg xmlns="http://www.w3.org/2000/svg" data-name="Layer 1" viewBox="0 0 512 640" x="0px" y="0px"><title>Soccer Field</title><path d="M101,187H43v26H70.894A4.889,4.889,0,0,1,76,217.754v76.492A4.889,4.889,0,0,1,70.894,299H43v26h58Z"/><path d="M43,377.7V407H71.716C69.391,392,58,380,43,377.7Z"/><path d="M209.984,256A46.078,46.078,0,0,0,251,301.739V210.261A46.078,46.078,0,0,0,209.984,256Z"/><rect x="43" y="223" width="23" height="66"/><path d="M302.016,256A46.078,46.078,0,0,0,261,210.261v91.478A46.078,46.078,0,0,0,302.016,256Z"/><path d="M71.763,105H43v29.621C58,132.3,69.56,120,71.763,105Z"/><path d="M81.8,407H251V311.781a56,56,0,0,1,0-111.562V105H81.842A44.955,44.955,0,0,1,43,144.7V177h62.813A5.025,5.025,0,0,1,111,181.834V330.166A5.025,5.025,0,0,1,105.813,335H43v32.621A44.693,44.693,0,0,1,81.8,407Zm18.8-278H95.794a5,5,0,1,1,0-10H100.6a5,5,0,0,1,0,10Zm22.385-10H213.6a5,5,0,0,1,0,10H122.986a5,5,0,1,1,0-10Z"/><path d="M469,134.621V105H440.237C442.44,120,454,132.3,469,134.621Z"/><path d="M411,325h58V299H440.785A4.616,4.616,0,0,1,436,294.246V217.754A4.616,4.616,0,0,1,440.785,213H469V187H411Z"/><path d="M469,367.621V335H405.865A4.748,4.748,0,0,1,401,330.166V181.834A4.748,4.748,0,0,1,405.865,177H469V144.7A44.955,44.955,0,0,1,430.158,105H261v95.219a56,56,0,0,1,0,111.562V407H430.2A44.693,44.693,0,0,1,469,367.621Z"/><path d="M440.284,407H469V377.7C454,380,442.609,392,440.284,407Z"/><path d="M21,429H491V83H21ZM33,100a5,5,0,0,1,5-5H474a5,5,0,0,1,5,5V411a5,5,0,0,1-5,5H38a5,5,0,0,1-5-5Z"/><rect x="446" y="223" width="23" height="66"/><text x="0" y="527" fill="#000000" font-size="5px" font-weight="bold" font-family="'Helvetica Neue', Helvetica, Arial-Unicode, Arial, Sans-serif">Created by Icongeek26</text><text x="0" y="532" fill="#000000" font-size="5px" font-weight="bold" font-family="'Helvetica Neue', Helvetica, Arial-Unicode, Arial, Sans-serif">from the Noun Project</text></svg>