<svg xmlns="http://www.w3.org/2000/svg" xmlns:xlink="http://www.w3.org/1999/xlink" xml:space="preserve" version="1.1" style="shape-rendering:geometricPrecision;text-rendering:geometricPrecision;image-rendering:optimizeQuality;" viewBox="0 0 100000 125000" x="0px" y="0px" fill-rule="evenodd" clip-rule="evenodd"><defs><style type="text/css">
   
    .fil0 {fill:black}
   
  </style></defs><g><path class="fil0" d="M92978 46696c2544,-7459 2423,-14768 -1044,-20778 -3472,-6013 -9740,-9769 -17476,-11293l18519 32071 1 0z"/><path class="fil0" d="M62984 13971c-9063,594 -19060,3582 -28628,9103 -9735,5626 -17428,12944 -22472,20644l24610 42625c9190,-519 19375,-3519 29116,-9141 9565,-5525 17149,-12691 22200,-20244l-24826 -42988 0 1zm-10169 44813l-2535 1466 -3031 -5244 -13 5 -2863 1654 3029 5244 -2537 1466 -3029 -5244 -13 6 -2863 1653 3029 5244 -2538 1466 -3028 -5246 -13 9 -5413 3125 -1563 -2706 5425 -3134 -3163 -5478 2537 -1466 3166 5478 2875 -1660 -3166 -5483 2537 -1463 3166 5478 2874 -1659 -3163 -5482 2537 -1462 3166 5478 2875 -1659 -3163 -5482 2537 -1462 3163 5478 2874 -1660 -3163 -5478 2535 -1465 3169 5478 2875 -1660 -3169 -5481 2537 -1463 3163 5478 5653 -3259 1562 2706 -5652 3262 3028 5244 -2535 1466 -3028 -5244 -2875 1659 3028 5244 -2537 1466 -3028 -5244 -13 6 -2863 1653 3028 5244 -2537 1466 -3028 -5244 -13 6 -2863 1653 3023 5247 7 0z"/><path class="fil0" d="M6893 53850c-2447,7363 -2284,14569 1141,20507 3428,5934 9585,9678 17187,11237l-18328 -31744z"/></g><text x="0" y="100015" fill="#000000" font-size="5px" font-weight="bold" font-family="'Helvetica Neue', Helvetica, Arial-Unicode, Arial, Sans-serif">Created by cr9183353</text><text x="0" y="100020" fill="#000000" font-size="5px" font-weight="bold" font-family="'Helvetica Neue', Helvetica, Arial-Unicode, Arial, Sans-serif">from the Noun Project</text></svg>